<?xml version="1.0" encoding="UTF-8" standalone="no"?>
<svg
   xmlns:dc="http://purl.org/dc/elements/1.1/"
   xmlns:cc="http://creativecommons.org/ns#"
   xmlns:rdf="http://www.w3.org/1999/02/22-rdf-syntax-ns#"
   xmlns:svg="http://www.w3.org/2000/svg"
   xmlns="http://www.w3.org/2000/svg"
   xml:space="preserve"
   enable-background="new -25.714 132.878 600.493 343.456"
   viewBox="-25.714 132.878 228.00001 217.00001"
   height="217"
   width="228"
   y="0px"
   x="0px"
   id="svg2"
   version="1.1"><metadata
     id="metadata82"><rdf:RDF><cc:Work
         rdf:about=""><dc:format>image/svg+xml</dc:format><dc:type
           rdf:resource="http://purl.org/dc/dcmitype/StillImage" /><dc:title></dc:title></cc:Work></rdf:RDF></metadata><defs
     id="defs80"><linearGradient
       gradientTransform="matrix(0.80010282,0,0,-0.79979172,-99.593596,596.56266)"
       y2="444.0968"
       x2="377.30179"
       y1="444.0968"
       x1="92.336502"
       gradientUnits="userSpaceOnUse"
       id="path4146_1_"><stop
         id="stop8"
         style="stop-color:#d7d7d7;stop-opacity:1"
         offset="0" /><stop
         id="stop10"
         style="stop-color:#ffffff;stop-opacity:1"
         offset="1" /></linearGradient></defs><path
     style="fill:url(#path4146_1_)"
     d="m -10.161303,132.88001 c 7.9590231,-0.006 12.7506388,8.51279 12.7506388,8.51279 3.2674199,18.58816 13.1966952,27.08594 29.7438212,25.48135 3.18541,12.79968 28.768697,24.46264 38.235914,16.99358 4.82762,-3.79901 3.683473,-25.23543 4.251546,-25.48136 2.139275,-0.99975 11.412467,38.80289 12.499606,2.88924 0.03,-0.83277 0.533069,-1.10471 0.682088,-0.29191 4.698604,23.10398 22.710919,-2.21843 20.813679,18.62714 21.0627,-17.36448 34.81547,-15.95884 46.735,-42.46794 6.9909,19.82984 -28.92471,33.29133 -38.23591,50.96872 1.82823,9.49153 20.93069,1.72056 29.73282,4.2439 -35.58557,-11.95389 -3.37943,-0.84978 8.50409,-16.99457 -2.94437,-10.59125 -11.33045,7.88595 -21.24973,4.24989 8.23206,-8.8537 47.78114,-22.97901 55.2501,-46.73283 7.89102,15.14106 -24.76818,26.1242 -29.75382,42.48294 9.61223,3.52708 28.58467,-4.94271 38.24191,-21.23147 7.18293,25.67132 -32.26714,41.30824 -59.48164,46.71783 16.83816,12.39878 42.86251,-15.03008 63.72719,-4.24089 -27.27551,17.46245 -3.78249,39.64167 -52.04369,24.35765 11.77551,-4.99569 16.67414,-7.69299 29.70082,-7.93593 -24.0831,-5.98744 -59.81469,1.57659 -71.12914,-7.93193 0.92012,18.90107 21.48576,16.77362 30.54092,27.54182 50.87254,-11.87091 -21.8188,22.34418 -34.78747,-6.30036 -8.980154,-10.40029 4.46758,6.33635 12.74564,4.24089 -0.86211,-16.14079 -17.874299,-16.1118 -17.00719,-33.97114 -12.448598,3.60406 3.67748,14.15631 0,21.23347 -20.817673,40.18953 -18.858421,112.13979 -58.515517,131.2788 -0.475061,0.22895 -1.749225,1.08672 -2.357303,0.62284 -0.498064,-0.39489 -0.372048,-2.00147 -0.356046,-2.75128 0.23103,-12.01487 6.414824,-32.36657 20.859681,-36.0806 1.534197,-0.3869 3.73948,-0.41689 4.744609,-0.3989 17.535254,-34.85692 21.813803,-54.40583 27.137488,-101.16366 -3.270421,28.69053 -90.90668179,21.19549 -114.720743,-29.73725 -6.095783,-13.01461 -0.679087,-8.35182 1.31817,-14.2253 12.7916442,16.39873 57.316365,28.38361 66.656565,26.96898 -12.510607,-7.12814 -78.695112,-22.09124 -55.234097,-59.47451"
     id="path4146" /></svg>